<?xml version="1.0" standalone="no"?>
<!DOCTYPE svg PUBLIC "-//W3C//DTD SVG 20010904//EN"
 "http://www.w3.org/TR/2001/REC-SVG-20010904/DTD/svg10.dtd">
<svg version="1.0" xmlns="http://www.w3.org/2000/svg"
 width="1280.000000pt" height="285.000000pt" viewBox="0 0 1280.000000 285.000000"
 preserveAspectRatio="xMidYMid meet">

<g transform="translate(0.000000,285.000000) scale(0.100000,-0.100000)"
fill="#000000" stroke="none">
<path d="M8385 2756 c-126 -45 -279 -99 -340 -120 -60 -21 -153 -53 -205 -71
-52 -18 -194 -68 -315 -110 -121 -43 -223 -82 -227 -89 -4 -6 -7 -429 -5 -941
l2 -930 210 -73 c116 -41 350 -123 520 -182 553 -193 580 -203 593 -219 11
-15 13 -14 26 2 7 10 40 27 72 38 119 42 402 142 514 180 63 22 252 88 420
147 l305 107 5 935 c3 514 4 936 4 938 -2 3 -275 102 -394 142 -47 16 -150 52
-230 80 -80 28 -215 75 -300 105 -85 29 -213 74 -285 99 -71 25 -132 45 -135
45 -3 -1 -108 -38 -235 -83z m-509 -591 c307 -108 600 -210 651 -228 l92 -32
208 72 c265 91 971 338 1042 364 29 11 55 18 57 17 6 -7 -184 -331 -199 -340
-9 -4 -197 -72 -419 -149 -222 -78 -422 -148 -445 -156 l-43 -15 0 -653 0
-652 -97 -172 c-53 -94 -100 -171 -104 -171 -4 0 -48 71 -98 159 l-91 158 0
666 c0 624 -1 665 -17 672 -10 3 -218 76 -463 162 -245 85 -452 159 -460 163
-14 7 -190 307 -190 323 0 4 4 7 8 7 5 0 260 -88 568 -195z"/>
<path d="M4555 2038 c-65 -35 -89 -92 -61 -145 17 -34 69 -63 111 -63 65 0
123 69 109 129 -17 68 -102 111 -159 79z"/>
<path d="M6205 2038 c-65 -35 -89 -92 -61 -145 17 -34 69 -63 111 -63 65 0
123 69 109 129 -17 68 -102 111 -159 79z"/>
<path d="M3078 1818 l-3 -183 -72 -3 -73 -3 0 -74 0 -74 73 -3 72 -3 3 -337 2
-338 100 0 100 0 2 338 3 337 113 3 112 3 0 74 0 74 -112 3 -113 3 -3 183 -2
182 -100 0 -100 0 -2 -182z"/>
<path d="M6738 1818 l-3 -183 -72 -3 -73 -3 0 -74 0 -74 73 -3 72 -3 3 -337 2
-338 100 0 100 0 2 338 3 337 113 3 112 3 0 74 0 74 -112 3 -113 3 -3 183 -2
182 -100 0 -100 0 -2 -182z"/>
<path d="M4172 1650 c-73 -26 -174 -100 -210 -154 -16 -25 -32 -43 -36 -39 -3
3 -6 25 -6 48 0 23 -3 63 -6 89 l-7 46 -88 0 -89 0 0 -420 0 -420 99 0 100 0
3 223 c3 220 3 222 31 279 46 94 131 155 233 165 l54 6 0 52 c0 29 3 73 6 99
8 54 1 57 -84 26z"/>
<path d="M5429 1656 c-25 -6 -66 -24 -91 -38 -45 -27 -118 -100 -118 -118 0
-6 -4 -10 -10 -10 -5 0 -10 17 -10 38 0 20 -3 54 -6 75 l-7 37 -88 0 -89 0 0
-420 0 -420 99 0 99 0 4 238 c5 280 12 307 92 387 102 102 239 98 290 -9 14
-29 16 -77 16 -325 l0 -291 100 0 100 0 0 338 c0 333 0 338 -24 388 -55 118
-202 172 -357 130z"/>
<path d="M4490 1220 l0 -420 100 0 100 0 0 420 0 420 -100 0 -100 0 0 -420z"/>
<path d="M6140 1220 l0 -420 100 0 100 0 0 420 0 420 -100 0 -100 0 0 -420z"/>
</g>
</svg>
